<svg xmlns="http://www.w3.org/2000/svg" id="a" viewBox="0 0 1023 242.46">
  <path d="M229.55,90.01c-1.8-1.52-3.87-1.75-6.12-1.72-5.55,.07-11.11-.08-16.66,.06-2.71,.07-3.87-.74-3.95-3.66-.27-10.89-.69-21.78-1.22-32.66-.15-2.98,.64-4.23,3.85-4.33,6.33-.2,12.65-.76,18.96-1.31,2.47-.21,6.27,.11,6.56-2.58,.36-3.34-3.55-4.59-6.25-5.25-2.59-.63-5.5,0-8.26,.15-3.96,.19-7.92,.32-11.86,.69-2.84,.27-3.95-.76-3.93-3.61,.04-4.95-.25-9.91-.22-14.86,.02-3.18-.19-6.46-3.98-6.85-3.5-.36-4.21,3.08-5.15,5.61-1.98,5.31-1.6,10.93-1.92,16.45-.13,2.23,0,4.35-3.27,4.48-9.31,.36-18.61,.8-27.9,1.45-3.6,.25-4.25-1.35-4.33-4.47-.17-6.53-.67-13.05-1.1-19.57-.1-1.45,.62-3.53-1.57-3.93-1.74-.32-2.87,1.2-3.78,2.48-1.88,2.64-2.7,5.71-3.01,8.89-.44,4.53-.97,9.07-.98,13.6,0,3.09-1.03,4.08-4.06,4.22-9.5,.45-18.99,1.09-28.47,1.87-3.69,.3-5.4-.76-5.72-4.7-.57-6.9-1.53-13.77-2.57-20.61-.3-1.95,.21-4.74-2.6-5.42-2.73-.66-5.09,.53-6.94,2.51-1.79,1.92-2.8,4.3-3.29,6.87-1.13,5.87-1.69,11.79-.38,17.69,.79,3.54-.12,5.02-4.04,5.05-7.13,.06-14.27,.45-21.37,1.07-4.08,.35-4.95-1.35-5.21-5.04-.61-8.85-1.72-17.66-2.7-27.27-5.69,2.73-8.54,5.7-7.21,11.83,1.12,5.18,.93,10.63,1.51,15.94,.36,3.34-.18,5.12-4.25,4.96-4.83-.19-9.24,1.86-13.57,3.92-4.57,2.17-3.7,4.6-.26,6.76,4.34,2.73,9.37,3.22,14.33,2.97,3.65-.18,5.32,.76,5.59,4.7,.71,10.66,1.74,21.3,2.76,31.93,.25,2.63-1.47,2.85-3.23,3.26-6.74,1.6-13.5,3.11-20.19,4.87-1.89,.5-4.73,.15-4.85,3.33-.11,2.76,1.61,4.4,3.88,5.43,2.16,.98,4.44,1.58,6.9,1.59,4.77,.02,9.51-.08,14.22-.97,2.89-.54,4.76-.23,4.96,3.62,.5,9.48,1.29,18.96,2.33,28.39,.4,3.66-1.01,4.9-4.26,5.5-8.56,1.59-17.09,3.34-25.62,5.1-2.71,.56-6.8-.17-6.67,4.08,.11,3.65,3.74,4.2,6.67,4.74,1.73,.32,3.55,.26,5.32,.26,7.34,.02,14.68,.1,22.01-.07,3.21-.08,4.65,.88,4.75,4.3,.16,5.34,.45,10.72,1.29,15.98,.79,4.94-.13,6.68-5.76,6.84-9.65,.27-19.4,1.11-28.63,4.5-1.73,.64-3.88,1.39-3.3,4.15,.48,2.28,1.27,3.38,4.06,3.93,9.96,1.95,19.74,.85,29.52-.76,4.13-.68,6.57,.03,6.24,4.86-.18,2.63,.59,5.08,2.17,7.25,1.02,1.39,2.32,2.17,4.07,1.89,2.08-.33,2.21-1.98,2.25-3.61,.06-2.38,.27-4.78,.05-7.13-.35-3.59,.49-5.3,4.67-5.3,9.31,0,18.62-.61,27.93-.9,3.56-.11,7.68-1.14,10.54,.27,3.72,1.83,1.2,6.87,2.54,10.28,.67,1.73,.15,4.38,2.9,4.5,2.21,.1,3.59-1.72,4.47-3.46,.78-1.55,1.72-3.61,1.3-5.08-2.54-8.9,3.5-7.63,8.62-7.6,1.98,0,3.97-.05,5.95-.08,7.4-.1,11.38,3.51,11.94,10.83,.03,.4,.03,.79,.07,1.19,.42,4.82,3.98,4.62,7.44,4.71,4.53,.12,3.07-3.16,3.04-5.43-.04-2.56-.35-5.14-.74-7.68-.44-2.84,.55-3.89,3.48-3.79,7.33,.25,14.68,.42,22.01,.29,3.45-.06,4.86,1.13,5.51,4.53,1.28,6.59,2.94,13.13,4.73,19.6,.7,2.51,1.19,6.44,4.48,6.06,2.89-.33,2.5-4.07,2.55-6.54,.12-6.54,.27-13.09-.05-19.62-.18-3.63,.74-5.39,4.54-5.96,5.29-.78,10.4-2.5,15.28-4.7,2.29-1.03,5.58-2.06,5.31-4.92-.33-3.4-4.14-3.38-6.69-3.76-4.88-.73-9.86-.99-14.8-1.15-2.61-.08-3.93-.61-3.97-3.63-.09-7.92-.4-15.84-.86-23.75-.19-3.16,.66-4.56,4-5.07,6.05-.92,12.13-2.04,17.72-4.75,2.1-1.02,4.84-2,4.17-4.99-.68-3.01-3.24-3.62-6.1-3.34-5.12,.52-10.26,.83-15.38,1.43-3.49,.41-4.89-.58-4.93-4.41-.14-10.89-.52-21.8-1.23-32.67-.23-3.59,.91-4.56,4.15-4.51,6.97,.11,13.8-1.08,20.57-2.62,1.73-.4,3.65-.79,4.11-2.89,.53-2.39-1.37-3.47-2.88-4.75l-.03,.02ZM110.85,55.75c9.61-.64,19.21-1.47,28.78-2.53,2.78-.31,3.8-.09,3.95,3.04,.51,10.77,1.32,21.53,2.11,32.29,.18,2.49-1.08,3.04-3.14,3.16-7.06,.42-14.11,.89-21.84,1.39-.91,0-2.51-.16-4.06,.03-3.15,.39-4.15-.83-4.96-4-2.4-9.39-1.96-19.13-4.07-28.53-.54-2.4-.4-4.6,3.23-4.85h0Zm-46.56,38.87c-.99-10.22-1.96-20.44-3.13-30.64-.42-3.64,1.87-3.77,4.31-3.98,6.3-.55,12.6-1.08,20.13-1.72,4.73-1.85,6.65,.84,7.3,6.54,.93,8.21,2.5,16.37,4.14,24.48,.76,3.78-.33,5.24-4.09,5.62-8.25,.83-16.51,1.77-24.7,3.04-3.17,.49-3.7-.85-3.94-3.34h-.02Zm4.92,52.55c-.66-9.46-1.82-18.88-2.9-28.31-.33-2.85,.17-4.35,3.53-4.55,8.69-.5,17.35-1.36,26.4-2.12,4.17-1.24,5.18,.99,5.79,5.15,1.29,8.78,3.2,17.47,5.13,26.14,.69,3.08,.13,4.24-3.16,4.53-10.04,.88-20.07,1.99-30.09,3.12-3.15,.36-4.46-.39-4.71-3.96h.01Zm43,43.66c-9.68,.66-19.34,1.48-26.3,2.03-8.98,.24-13.63-3.16-13.96-10.19-.06-1.39-.11-2.77-.22-4.15-.59-7.6,2.83-11.82,10.27-12.66,7.47-.85,14.98-1.48,22.4-2.64,4.94-.77,7.21,.71,7.81,5.79,.69,5.87,1.78,11.73,3.23,17.46,.85,3.36-.18,4.15-3.22,4.36h0Zm5.41-57.93c-.92-6.06-1.73-12.14-2.68-18.2-.41-2.63,.12-3.99,3.2-4.17,8.3-.47,16.59-1.18,24.87-1.94,2.96-.27,3.64,1.08,3.92,3.72,.98,9.45,2.12,18.88,3.35,28.3,.51,3.86-.29,6.02-4.81,5.67-3.74-.29-7.53-.06-11.29-.06-9.62,.43-15.14-4-16.56-13.31h0Zm32.83,55.02c-7.29,.36-14.58,.9-21.84,1.64-2.55,.26-3.7-.48-4-2.91-.87-7.04-1.7-14.09-2.7-21.12-.39-2.78,.43-3.89,3.35-3.97,4.53-.12,9.05-.65,13.58-1,11.28-.24,11.23-.23,12.84,10.7,.57,3.89,1.33,7.76,2.18,11.61,.67,3.02,.31,4.87-3.42,5.06h0Zm6.2-101.48c-.41-10.07-.98-20.14-1.62-30.2-.18-2.88,.57-4.48,3.7-4.72,8.87-.68,17.74-1.43,26.6-2.29,3.21-.31,4.18,1,4.1,4.03-.15,5.34-.04,10.68-.04,16.02h.07c0,5.14-.09,10.29,.04,15.43,.06,2.46-.67,3.53-3.3,3.64-8.5,.35-16.99,.82-25.47,1.46-2.74,.21-3.96-.4-4.08-3.37h0Zm3.38,54.4c-.34-9.89-.91-19.78-1.62-29.65-.18-2.5,.37-3.6,2.92-3.97,7.83-1.13,15.64-2.38,23.44-3.7,3.54-.6,5.05,.32,4.81,4.25-.33,5.33-.08,10.69-.08,16.04h-.05c0,5.35-.06,10.7,.03,16.05,.04,2.55-.52,4.11-3.53,4.21-7.12,.23-14.25,.58-21.36,1.1-3.39,.25-4.44-1.01-4.56-4.33h0Zm29.33,29.79c-.11,10.66-5.08,16.04-14.91,16.15-7.96,.09-12.03-3.77-12.21-11.57-.04-1.58-.03-3.17-.11-4.75-.36-7.02,2.91-10.96,9.8-11.83,1.18-.15,2.37-.21,3.55-.21,4.47,0,10.06-3.66,12.99-.42,2.88,3.17,.44,9.1,.88,12.62h.01Z" style="fill: #e4d52b;"/>
  <g>
    <path d="M343.17,60.07c-.81-4.06-1.05-8.63-3.19-11.89-1.64-2.49-1.3-7.35-5.57-7.39-6.06-.06-12.19-1.83-18.15-.04-3.92,1.17-7.89,1.17-11.73,.85-6.87-.58-13.46,1.81-20.28,1.21-1.7-.15-3.1,.79-2.99,2.86,.11,1.92,.69,3.86,2.98,3.63,7.64-.77,8.5,4.36,8.5,9.82,.02,15.11-.2,30.22-.33,45.33-.03,3.03-1.8,4.13-4.56,4.16-4.14,.04-5.51,2.58-5.47,6.22,.04,4.16,3.44,3.69,6.02,4.02,5.94,.74,11.73-2.02,17.73-.84,2.72,.54,4.79-.35,4.94-3.5,.14-3.13-.2-6.55-4.29-6.38-6.37,.26-7.09-3.32-6.8-8.3,.14-2.34-.23-4.72-.47-7.07-.45-4.56,1.09-7.92,5.96-8.43,6.96-.73,9.09,.83,8.67,7.12-.23,3.48,.86,5.79,3.67,6.1,3.54,.39,4.14-2.74,4.35-5.74,.41-5.94-1.34-11.83-.33-17.12,0-2.82,.1-5.01-.02-7.17-.18-3.19,.99-7.76-3.73-8.03-5.26-.29-4.44,4.41-4.6,7.88-.02,.4-.04,.79-.09,1.19-.72,5.55-5.15,5.55-9.01,5.4-3.7-.15-5.39-2.59-4.83-6.57,.39-2.72,.13-5.54,.13-8.31,.01-7.62,4.77-11.64,12.42-9.86,3.95,.92,7.79,1.32,11.74,.78,5.29-.73,8.35,1.5,9.28,6.72,.31,1.75,.52,3.53,.89,5.27,.61,2.86,1.48,5.54,5.32,4.83,3.9-.73,4.49-3.54,3.84-6.75h0Z" style="fill: #0188cb;"/>
    <path d="M814.56,91.74c-.2-2.48-1.49-3.99-4.2-4.01-2.8-.03-3.97,1.65-4.06,4.07-.08,2.14,.16,4.33,.51,6.45,1.23,7.34-.15,9.27-7.55,10.18-2.37,.29-4.76,.38-7.05-.47-2.51-.93-5.03-1.03-7.57-.23-4.59,1.44-6.38-.88-7.57-4.98-1.36-4.68-.83-9.58-.68-14.05,.23-6.83-3.39-13.34-1.02-20.23,.87-2.54,1.29-5.55,.86-8.17-1.38-8.32,.03-10.46,9.15-11.06,3.14-.2,3.9-1.72,4.6-4.25,.78-2.81-1.06-3.45-2.87-4.24-2.17-.96-4.35-2-6.82-1.76-6.65,.65-13.31,.44-19.98,.32-4.24-.07-5.18,3.7-5.36,6.61-.17,2.73,2,4.76,5.3,3.77,4.48-1.34,5.72,1.3,6.07,4.88,.25,2.55,.15,5.13,.23,7.69,.35,10.82,.49,21.65,1.15,32.45,.37,6.04,1.88,11.92-6.68,13.76-2.87,.62-4.97,3.56-4.11,6.98,.76,3.02,3.5,3.84,6.17,3.32,12.84-2.52,25.75,.43,38.64-.69,11.49-1,14.57-3.78,13.44-15.27-.19-3.69-.31-7.39-.61-11.07h0Z" style="fill: #0188cb;"/>
    <path d="M717.61,116.25c.5-3.2-1.55-4.7-4.31-5.37-4.51-1.09-5.79-4.18-5.71-8.42,.13-7.86,0-15.72,.19-23.57,.06-2.38-.76-4.24-2.14-5.97-6.6-8.26-18.36-12.36-27.69-3.42-3.9,3.74-6.32,2.85-6.98-2.51-.69-5.58-.8-11.3-.54-16.92,.27-5.76-3.02-7.11-7.62-7.22-1.95-.05-4,.16-5.84,.76-1.6,.52-4.61-.94-4.56,2.3,.05,2.94,2.04,5.1,4.86,5.07,7.02-.08,6.96,6.39,6.86,9.51-.38,12.47-.28,24.89,.37,37.34,.16,3.13-.39,6.3-.71,9.45-.31,3.03-1.2,5.17-5.12,4.88-3.89-.28-5.73,2.76-4.46,5.85,1.31,3.2,5.44,2.78,8.39,2.92,2.29,.11,5.74,.17,5.44-3.9,1.41,0,1.26,1.07,1.71,1.64,3.3,4.14,5.89-.42,8.82-.75,.8-.09,2.76-.04,1.64-1.33-3.39-3.91,1.09-2.05,1.98-2.87-.63-1.99-2.29-2.7-4.03-2.82-5.25-.36-8.62-1.78-5.67-7.96,.81-1.7-.11-3.46-.47-5.2-2.66-12.98,6.45-24.76,19.2-25.24,4.48-.17,7.29,1.47,8.18,5.84,1.52,7.43,1.86,15.01,2.02,22.55,.19,8.9-.15,9.44-8.72,10.99-4.39,.79-1.52,3.62-2.12,5.37-.66,1.89,1.11,3.31,2.75,2.56,6.17-2.83,12.5,.47,18.69-.83,2.18-.46,5.08,.74,5.62-2.71l-.03-.02Z" style="fill: #0188cb;"/>
    <path d="M466.16,111.46c-3.82,.34-6.07-3.35-4.42-5.87,.3-.45,.55-1.15,.42-1.63-2.27-8.85,.96-17.65-.57-26.82-2.49-14.94-19.38-16.37-27.91-8.87-2.25,1.98-4.48,3.99-6.85,6.1-3.5-8.79-4.61-9.68-12.31-9.72-2.74-.02-6.05-.27-6.85,3.18-.84,3.63,1.71,5.4,4.93,6.14,3.95,.9,5.59,3.62,5.65,7.32,.13,8.21,.1,16.41,.08,24.62,0,3.27-1.42,5.08-5.02,5.18-2.47,.07-4.78,1.07-4.59,4.26,.18,2.98,2.31,3.74,4.83,4.27,5.3,1.11,10.65,.8,15.97,.56,2.44-.11,5.32-.22,5.99-3.63,.71-3.63-2.66-3.96-4.52-5.36-1.46-1.1-4.61-.83-4.27-3.3,.61-4.45-2.24-8.41-1.25-12.79,0,0-.07,.11-.08,.12-.02-.03-.04-.07-.05-.1-.89,.12-1.79,.35-2.66,.27-.98-.09-1.88-.68-1.95-1.76-.03-.45,.4-1.15,.81-1.38,1.18-.67,2.18-.4,2.79,.94,.3,.66,.67,1.3,1.02,1.94,.04,0,.09-.01,.13-.02-.03-.01-.04-.02-.07-.03,.08-8.55,4.82-14.26,11.51-18.81,4.2-2.86,9.14-4.19,13.4-1.8,3.96,2.22,4.74,7.47,3.96,11.61-1.24,6.55-1.26,12.95-.36,19.43,.59,4.17,.1,6.8-5.22,6.23-1.91-.2-5.4-.6-5.41,2.91-.01,2.99,2.45,3.95,5.17,4.76,6.01,1.79,11.76-.53,17.63-.52,2.35,0,5.38,.34,5.07-3.16-.22-2.43-1.19-4.62-5.02-4.27h.02Z" style="fill: #0188cb;"/>
    <path d="M521.39,96.27c-2.3,1.92-7.05,2.83-6.12,6.33,1.41,5.33-1.24,6.22-5.09,7.03-4.64,.97-7.09-1.28-8.33-5.46-1.63-5.5-3.29-10.99-2.57-15.69-.88-15.78,.64-17.32,15.74-17.16,1.38,.01,2.81,.08,4.13-.23,1.7-.41,3.64-.92,3.75-3.18,.11-2.27-1.98-2.04-3.32-2.64-4.7-2.12-9.78-.74-14.65-1.56-5.11-.86-7.35-3.5-6.55-8.35,.57-3.44-.87-6.61-.53-9.98,.17-1.6-.85-3.13-2.59-3.54-1.56-.37-2.5,.89-3.48,1.86-3.4,3.39-2.66,7.62-2.37,11.75,.32,4.52-.54,7.73-6.24,7.75-2.4,0-4.88,1.45-7.17,2.55-1.56,.75-2.54,2.29-.88,3.79,1.87,1.7,3.93,3.25,6.1,4.55,2.85,1.7,8.16-.92,8.96,3.84,.58,3.45-.9,7.26-1.5,10.9-.13,.77-.42,1.52-.63,2.28-2.72,10.24,2.24,18.5,7.47,26.36,1.08,1.62,3.07,4.66,6.64,4.05,4.47-.76,9.08-.78,13.53-1.63,5.05-.97,8.46-3.99,9.52-9.33,.5-2.51,1.54-4.9,2.12-7.4,.52-2.24,1.54-4.74-.45-6.68-1.57-1.53-3.85-1.57-5.48-.21h0Z" style="fill: #0188cb;"/>
    <path d="M928.52,70.71c-5.85-4.62-13.38-7.41-22.01-5.33-2.92,.7-6.32,6.16-9.21,1.62-1.82-2.86-1.21-7.28-1.63-11-.11-.98-.02-1.98-.02-2.13,.32-7.42-3.02-11.2-10.03-11.34-.79-.02-1.59-.03-2.38,0-2.64,.12-5.56,.29-5.96,3.58-.44,3.65,2.46,3.9,5.15,4.08,4.32,.28,5.98,2.67,6.37,6.92,1.7,18.54-1.12,37.14,.9,55.68,.39,3.57,.36,5.44,4.59,3.34,1.08-.54,3.14-1.64,4.86,.24,3.58,3.91,8.25,3.02,12.78,2.33,.95-.14,1.93-.63,2.83-.5,8.48,1.18,13.44-.97,17.34-7.99,3.04-5.48,5.48-10.95,5.21-17.71-.34-8.57-2.45-16.79-8.8-21.8h0Zm-6.62,36.77c-7.02,4.63-14.03,5.05-20.99,.21-4.43-3.09-4.31-7.74-4.37-11.86-.06-4.62,1.27-9.34,2.48-13.89,1.76-6.58,5.77-9.39,12.53-9.4,9.2,.07,15.9,4.77,18.47,14.84,2.08,8.16-.43,15.02-8.13,20.1h.01Z" style="fill: #0188cb;"/>
    <path d="M401.25,114.88c2.16-1.6,3.68-5.01,1.88-7.16-2.06-2.47-4.06,.09-5.65,1.94-.59,.68-1.66,1.47-2.4,1.37-1.45-.2-1.34-1.67-1.37-2.84-.21-6.52-2.06-12.91-1.51-19.49,.08-1.38,.24-2.76,.24-4.14,.03-8.07-1.32-15.38-9.74-19.29-7.94-3.68-15.48-2.42-23.56,.1-6.16,1.92-7.91,6.28-8.7,11.18-.64,3.93,.69,8.1,6.08,8.25,4.16,.12,8.11-.28,8.34-5.93,.3-7.21,5.19-10.66,12.06-8.11,4.45,1.65,7.98,4.89,8.06,10.02,.08,5.12-4.7,4.04-7.73,5.44-6.27,2.9-12.79,2.95-19.43,3.25-5.42,.24-10.66,6.76-11.16,12.87-.62,7.69,1.99,11.73,8.19,14.31,9.16,3.81,17.94,1.73,26.33-1.77,3.15-1.31,4.88-1.41,7.17,.7,4.48,4.12,8.94,2.25,12.89-.68v-.02Zm-15.15-17.14c-.39,8.93-7.01,14.41-18.56,14.45-.68-.05-2.51,.05-4.21-.36-4.02-.96-9-1.67-9.12-6.85-.11-4.85,4.42-7.32,8.25-9.01,3.14-1.39,6.94-1.26,10.44-1.84,2.13-.36,4.35-.52,6.35-1.25,7.22-2.63,7.19-2.7,6.86,4.86h-.01Z" style="fill: #0188cb;"/>
    <path d="M873.43,109.77c-1.92,2.14-3.51,2.13-3.65-1.14-.29-6.91-2.18-13.7-1.53-19.55,0-3.69,.16-6.26-.03-8.81-.72-9.85-5.94-15.29-15.79-17.14-6.56-1.24-12.5,.68-18.5,2.77-4.61,1.61-8.61,8.35-7.53,13.11,1.04,4.63,3.91,6.53,8.66,5.8,4.26-.66,6.36-2.83,5.74-7.27-.38-2.72-.11-5.03,2.94-6.32,6.26-2.64,13.79,.11,16.56,6.27,1.83,4.07,.84,6.96-3.7,8.09-7.15,1.78-14.07,4.36-21.72,3.98-5.82-.29-11.19,5.35-12.07,11.74-1,7.21,1.13,12.83,8.19,15.45,9.28,3.45,17.93,1.52,26.35-1.93,2.82-1.15,4.49-1.61,6.68,.48,4.03,3.85,8.2,2.82,12.44,.23,2.98-1.82,4.23-5.47,2.94-7.48-2-3.12-4.23-.22-5.97,1.72h0Zm-11.31-12.71c-.21,9.39-6.73,15.07-18.46,15.13-.7-.05-2.52,.05-4.23-.35-4.03-.94-9.16-1.66-9.17-6.77,0-4.88,4.29-7.79,8.66-9.3,3.12-1.08,6.58-1.32,9.91-1.58,2.41-.18,4.71-.57,6.92-1.46,4.35-1.76,6.48-.32,6.37,4.32h0Z" style="fill: #0188cb;"/>
    <path d="M585.25,106.58c.02-1.24-.34-2.4-1.83-2.61-4.09-.56-7.21,1.21-9.95,4.08-2.64,2.77-5.43,5.41-9.57,3.82-8.07,.45-14.08-2.85-18.34-9.24-3.76-5.64-2.9-8.04,3.75-8.36,9-.43,18.03-1.89,27.1-.3,5.93,1.04,8.68-1.77,8.69-7.79,0-3.51-1.52-6.33-2.96-9.29-7.42-15.24-26.72-17.72-39.42-7.22-6.99,5.77-7.11,13.73-7.96,21.41-1.34,12.12,8.89,25.41,20.66,28.34,8.35,2.08,15.59-.54,22.64-4.21,3.44-1.79,7.09-3.9,7.18-8.65v.02Zm-37.97-29.67c8.87-7.05,17.47-6.54,26.57-.71,1.42,.91,2.29,1.39,2.6,3.21,1.23,7.07,.84,7.62-6.6,7.6h-2.5s-.03,0,0,0c-7.31-.66-13.01,1.41-18.66-.2-2.13-.61-5.34-.63-5.19-3.75,.11-2.39,1.51-4.34,3.78-6.14h0Z" style="fill: #0188cb;"/>
    <path d="M992.26,92.57c-6.7-7.45-14.9-6.56-22.92-6.47-4.55,.05-6.95-2.04-9.45-4.73-1.13-1.21-2.65-3.3-1.28-4.69,1.79-1.83,2.32-5.52,5.94-5.1,4.66,.54,9.36,.97,13.91,2.02,2.78,.64,5.38,2,5.86,5.74,.31,2.43,3.04,3.87,5.12,3.77,2.93-.13,2.35-3.01,2.4-5.15,.06-2.57,.36-5.14,.32-7.71-.04-2.31-.97-4.97-3.45-4.71-7.17,.75-13.71-3.7-21.4-1.91h-4.18c-5.41-.03-11.79,4.72-13.66,10.19-1.24,3.62,1.42,12.92,4.34,15.36,1.46,1.23,3.19,1.97,4.95,1.43,6.49-2.03,12.4,1.94,18.77,1.67,2.76-.12,5.53,1.89,7.85,3.88,3.8,3.27,2.95,7.09,.04,9.67-2.6,2.3-5.46,4.14-10.03,4.43-9.9,.64-17.73,.34-20.44-11.25-.41-1.77-2.81-3.01-4.86-2.15-2.19,.91-1.48,3.01-.87,4.66,1.02,2.75,.63,5.43,.13,8.19-.45,2.51-.76,5,.32,7.55,1.53,3.63,3.17,5.54,6.54,1.64,1.75-2.03,3.82-3.43,6.78-2.49,7.32,2.32,14.72,2.11,21.9-.29,7.67-2.57,15.13-14.92,7.37-23.55h0Z" style="fill: #0188cb;"/>
    <path d="M641.22,112.66c2.19-1.06,4.22-3.82,4.87-6.22,.45-1.65-2.55-2.53-4.42-3.22-.49-.18-1.2-.69-1.22-1.08-.25-3.86-2.1-2.66-3.75-1.11-1.13,1.06-1.86,2.55-2.86,3.77-6.74,8.15-18.33,8.14-25.27,.44-3.95-4.38-2.32-9.64-3.16-14.44-1.69-9.67,5.04-17.24,14.85-17.71,5.3-.82,9.61-.52,9.3,6.72-.07,1.55,1.54,3.14,2.24,4.77,1.5,3.5,4.13,4.28,7.68,3.76,3.61-.53,5.63-2.3,6.44-5.89,1.64-7.29-4.3-15.34-12.6-17.51-3.51-.91-7.21-.03-10.46-1.32-5.28-2.09-9.38,1.74-14.11,2.34-4.23,.53-7.5,5.9-8.56,8.43-4.4,10.5-7.82,21.5-.47,32.96,5.27,8.22,23.09,16.04,31.92,10.74,3.13-1.88,6.26-3.81,9.59-5.43h-.01Z" style="fill: #0188cb;"/>
    <path d="M618.31,175.28c-.15-1.8,1.28-4.56-2.32-5.05-3.2-.43-4.48,1.05-5.44,3.92-2.88,8.6-6.04,17.1-9.33,26.3-3.17-9.31-6.28-18.06-9.07-26.92-.93-2.96-2.64-3.49-5.3-3.29-2.91,.22-2.08,2.41-2.21,3.97-.78,9.86-1.55,19.72-2.11,29.6-.09,1.53-1.61,4.29,1.93,4.48,3.32,.17,2.49-2.41,2.6-4.17,.56-8.79,1.03-17.58,1.6-27.55,3.25,9.91,6.1,18.69,9.02,27.44,.58,1.74,.36,4.26,3.19,4.28,2.78,.02,2.71-2.47,3.33-4.2,3.19-8.81,6.32-17.64,9.88-27.62,.55,10.25,1.01,19.12,1.51,27.99,.11,1.88-.29,4.17,2.92,3.88,3.15-.29,1.84-2.59,1.76-4.04-.54-9.67-1.18-19.35-1.96-29v-.02Z" style="fill: #0188cb;"/>
    <path d="M556.3,183.34c.05-2.37-2.26-3.15-2.81-2.15-2.32,4.25-4.46,1.08-6.71,.34-4.12-1.34-7.82-.45-11.06,2.33-5.2,4.46-6.26,13.86-2.26,19.54,3.92,5.58,9.46,6.19,17.6,1.7-.1,7.82-3.08,10.7-10.09,10.09-1.56-.14-3.09-.64-4.63-.98-1.11-.24-1.96,.1-2.37,1.17-.45,1.15,.21,1.74,1.14,2.33,7.58,4.81,19.91-.47,20.76-9.46,.77-8.24,.27-16.6,.43-24.91h0Zm-12.7,21.16c-4.36-.16-7.51-4.19-7.56-9.67-.05-5.77,3.2-9.95,7.83-10.08,4.83-.13,7.49,3.43,7.44,9.93-.05,6.31-2.94,9.99-7.7,9.81h-.01Z" style="fill: #0188cb;"/>
    <path d="M669.52,184.55c0-5.21-.02-9.73,0-14.25,.01-1.73-.74-2.42-2.49-2.43-1.78-.02-2.48,.67-2.48,2.41,.02,11.86,.04,23.73-.03,35.59-.01,2.28,2.21,3.27,2.73,2.19,2.58-5.32,5.07-.97,7.47-.24,5.27,1.6,10.97-.5,13.84-5.32,3.42-5.72,2.73-13.93-1.53-18.25-4.24-4.31-9.6-4.37-17.53,.3h.02Zm7.76,19.99c-5.04-.07-7.81-3.58-7.75-9.83,.06-6.11,3-9.86,7.83-9.95,4.9-.1,8.56,4.34,8.42,10.22-.13,5.58-3.72,9.62-8.49,9.56h-.01Z" style="fill: #0188cb;"/>
    <path d="M451.74,184.46c0-4.95-.02-9.28,.01-13.61,.01-1.77-.26-2.99-2.54-3-2.36,0-2.44,1.35-2.44,3.05,.02,11.46,.02,22.92,0,34.38,0,1.7,.07,3.07,2.44,3.06,2.27,0,2.56-1.22,2.54-3-.03-4.15-.06-8.3,.02-12.45,.09-4.66,2.51-7.63,7.17-7.76,4.74-.13,6.44,3.29,6.61,7.46,.18,4.34,.12,8.69,.05,13.04-.03,2.07,.85,2.74,2.84,2.69,2-.05,2.15-1.24,2.14-2.74-.02-3.56,.01-7.11,0-10.67-.05-13.24-6.54-17.17-18.84-10.45h0Z" style="fill: #0188cb;"/>
    <path d="M294.59,204.32c-2.25-.53-6.09,1-6.64-.87-1.06-3.65-1.03-7.9-.32-11.69,.49-2.59,3.77-.73,5.71-1.29,2.75-.79,7.99,1.93,7.94-1.79-.06-4.53-5.43-2.1-8.22-2.04-4.71,.09-5.8-1.38-5.95-5.98-.17-5.3,1.38-7.19,6.58-6.4,2.13,.32,4.34,.02,6.52,.04,1.63,0,2.66-.53,2.5-2.39-.15-1.7-1.43-1.48-2.58-1.64-16.64-2.36-17.8-1.39-17.8,15.03v10.67c0,12.37,0,12.58,12.15,12.21,3-.09,8.63,2.53,8.68-2.06,.05-3.79-5.57-1.08-8.58-1.78v-.02Z" style="fill: #0188cb;"/>
    <path d="M405.65,200.92c-2.08-5.59-4.35-11.01-6.08-16.61-1.02-3.3-2.82-3.88-6.4-2.89,2.29,5.77,4.44,11.27,6.66,16.73,4.01,9.9,4.09,9.96-3.81,17.27-1.41,1.31-1.23,2.25-.64,3.53,1,2.18,2.36,.65,3.39,.13,3.69-1.86,5.98-5.06,7.74-8.67,4.55-9.36,7.72-19.24,10.57-29.4-8.89,3.52-6.37,13.88-11.42,19.9h-.01Z" style="fill: #0188cb;"/>
    <path d="M643.06,180.96c-7.71,.04-13.15,5.68-13.21,13.69-.06,7.99,5.45,13.74,13.13,13.66,7.62-.07,13.22-5.88,13.26-13.73,.04-8.03-5.41-13.67-13.17-13.62h-.01Zm0,23.55c-4.68,.07-8.18-4.05-8.24-9.68-.06-6.02,3.39-10.15,8.42-10.07,4.57,.07,8.07,4.41,8.02,9.93-.05,5.56-3.55,9.75-8.2,9.82Z" style="fill: #0188cb;"/>
    <path d="M521.71,203.68c.2-1.76,.04-3.56,.04-5.34,0-2.18,.11-4.36-.02-6.53-.59-9.61-7.66-13.52-16.14-8.82-1.71,.95-2.83,2.22-3.55-.79-.35-1.43-1.79-1.33-2.98-1.1-1.36,.26-1.09,1.43-1.09,2.35-.02,7.32,.01,14.64-.02,21.96,0,1.81,.27,2.99,2.56,2.94,2.34-.05,2.43-1.42,2.43-3.11-.01-4.15-.08-8.31,.03-12.46,.12-4.68,2.64-7.59,7.3-7.64,4.73-.05,6.36,3.35,6.49,7.56,.11,3.56-.14,7.13,.1,10.68,.12,1.79-1.47,4.72,2.29,4.91,3.89,.19,2.36-2.79,2.57-4.61h0Z" style="fill: #0188cb;"/>
    <path d="M740.41,181.47c-6.22,1.63-10.02,8.26-9.08,15.38,.96,7.27,5.77,11.39,14.46,11.47,.5-.06,2.14,0,3.61-.46,1.47-.45,4.12-.2,3.38-2.94-.68-2.5-2.54-.78-3.89-.62-4.03,.5-7.99,.56-10.9-2.89-1.26-1.49-2.55-3.44-1.64-5.37,.77-1.64,2.83-.68,4.3-.76,2.56-.14,5.13-.04,7.7-.04,7.19,0,8.66-2.67,4.88-9.07-2.95-5-7.55-6.08-12.81-4.7h0Zm9.38,8.33c-.54,4.02-4.81,.74-7.21,2.15-1.85-1.41-5.81,1.8-5.85-2.07-.03-3.17,3.02-5.28,6.64-5.35,3.67-.07,6.86,2,6.42,5.27h0Z" style="fill: #0188cb;"/>
    <path d="M349.16,181.38c-6.25,1.48-10.2,8.05-9.4,15.18,.84,7.52,5.8,11.77,14.32,11.76,.38-.02,1.45,.14,2.34-.17,1.83-.64,5.23,.09,4.81-2.94-.47-3.39-3.12-.74-4.75-.7-4.06,.1-8.01,.05-10.55-3.8-.85-1.29-1.84-2.84-1.25-4.41,.75-2,2.73-.91,4.13-1.01,2.55-.19,5.14,.09,7.69-.1,2.27-.17,5.47,1.28,6.59-.88,1.36-2.63,.03-5.8-1.57-8.39-2.91-4.71-7.35-5.73-12.37-4.54h0Zm6.51,10.32c-3.5-.14-7.02-.03-11.22-.03,1.16-4.36,3.12-6.72,6.92-7.11,2.77-.29,4.99,.73,6.37,3.23,1.29,2.32,1.57,4.06-2.07,3.92h0Z" style="fill: #0188cb;"/>
    <path d="M328.4,184.71c-1.72,5.76-3.87,11.39-6.22,18.2-2.36-6.83-4.5-12.54-6.27-18.36-1.03-3.4-2.72-4.49-6.28-2.87,2.99,8.01,5.94,15.96,8.92,23.89,.56,1.48,1.1,2.8,3.23,2.81,2.34,.02,3-1.33,3.67-3.1,3.03-7.93,6.13-15.83,9.21-23.75-3.6-1.45-5.25-.24-6.27,3.17h0Z" style="fill: #0188cb;"/>
    <path d="M430.94,174.29s-.92-.43-1.43-.49c-.84-.1-7.15,8.99-6.79,9.76,.16,.33,.44,.83,.7,.86,4.44,.4,2.97,3.79,3.09,6.23,.17,3.54-.12,7.12,.15,10.65,.33,4.26,2.54,6.96,7.12,7.04,1.52-.18,3.49,.39,3.82-1.82,.29-1.88-1.2-2.12-2.67-2.31-3.06-.38-3.64-2.56-3.62-5.15,.02-3.55,.15-7.11-.04-10.65-.15-2.84,.89-3.93,3.72-3.71,1.4,.11,4.37-.02,3.19-1.82-2-3.04-9.3-1.73-7.25-8.58h0Z" style="fill: #0188cb;"/>
    <path d="M718.26,167.85c-2.91-.07-2.51,1.83-2.52,3.56-.01,11.08-.02,22.16,0,33.23,0,1.66-.56,3.65,2.38,3.69,2.84,.03,2.56-1.79,2.56-3.56,.01-5.54,0-11.08,0-16.62s.02-11.08-.01-16.62c-.01-1.69,.45-3.62-2.43-3.69h.02Z" style="fill: #0188cb;"/>
    <path d="M385.47,181.24c-2.37-.64-4.17,.63-5.78,2.21-.42,.41-.8,.86-1.43,1.56-1.74-1.35-.71-4.83-3.88-3.97-2.61,.72-1.29,2.99-1.33,4.5-.16,6.14-.15,12.28-.02,18.42,.04,1.66-1.17,4.25,2.25,4.35,3.86,.12,2.53-2.77,2.63-4.62,.18-3.36-.05-6.74,.11-10.1,.15-3.09,1.28-5.76,4.18-7.39,1.46-.82,4.48,.41,4.03-2.95-.1-.72-.36-1.89-.78-2h.02Z" style="fill: #0188cb;"/>
    <path d="M483.69,180.94c-1.82,.05-2.4,.81-2.4,2.49,.03,7.51,.03,15.02,0,22.54,0,1.8,.79,2.38,2.53,2.36,1.8-.02,2.45-.8,2.43-2.49-.03-3.76,0-7.51,0-11.27,0-3.56-.03-7.12,.02-10.68,.02-1.81-.32-3.02-2.58-2.96h0Z" style="fill: #0188cb;"/>
    <path d="M702.79,180.93c-2.31-.04-2.56,1.18-2.53,2.97,.05,3.56,.01,7.12,.01,10.67s.01,7.12,0,10.68c0,1.67,0,3.08,2.4,3.09,2.25,0,2.59-1.15,2.58-2.96-.03-7.12-.02-14.23,0-21.35,0-1.7-.11-3.05-2.44-3.1h-.02Z" style="fill: #0188cb;"/>
    <path d="M484.43,170.37c-1.83-.05-3,1.19-3.06,2.94-.06,1.86,1.17,2.81,3.1,2.89,1.76-.28,2.87-1.25,2.68-3.17-.15-1.55-1.2-2.61-2.72-2.66Z" style="fill: #0188cb;"/>
    <path d="M703.23,170.35c-1.49-.03-2.6,1.05-2.84,2.55-.3,1.9,.78,2.92,2.5,3.27,1.96,.02,3.19-.88,3.25-2.75,.06-1.83-1.12-3.04-2.91-3.07Z" style="fill: #0188cb;"/>
  </g>
</svg>